<svg xmlns="http://www.w3.org/2000/svg" viewBox="0 0 32 30" fill="none">
  <path d="M16.4545 18.1115V30H13.7643V19.4278C13.7643 19.2981 13.7127 19.1737 13.621 19.082C13.43 18.8909 13.1203 18.891 12.9293 19.082L5.4361 26.5761L3.53331 24.6733L11.0271 17.1797C11.218 16.9888 11.218 16.6792 11.0271 16.4883C10.9354 16.3966 10.8111 16.3451 10.6814 16.3451H0.109375V13.6549H11.9978L16.4545 18.1115Z" fill="#141414"/>
  <path d="M16.4545 10.572C16.4545 10.7017 16.506 10.826 16.5977 10.9177C16.7886 11.1087 17.0982 11.1087 17.2891 10.9177L24.7826 3.42393L26.6854 5.32673L19.1914 12.8199C19.0003 13.0109 19.0003 13.3206 19.1913 13.5116C19.2831 13.6034 19.4075 13.6549 19.5372 13.6549H30.1094V16.3451H18.2209L13.7643 11.8885V0H16.4545V10.572Z" fill="#141414"/>
</svg>
